<svg width="64" height="62" viewBox="0 0 64 62" fill="none" xmlns="http://www.w3.org/2000/svg">
<path d="M57.1168 28.2148C57.5942 28.0108 57.9993 27.6756 58.2819 27.2507C58.5646 26.8259 58.7124 26.33 58.707 25.8246C58.7016 25.3191 58.5432 24.8263 58.2516 24.4072C57.9599 23.9881 57.5477 23.6611 57.0661 23.4667L34.2101 13.3813C33.5153 13.0743 32.7605 12.9154 31.9968 12.9154C31.2331 12.9154 30.4783 13.0743 29.7834 13.3813L6.93011 23.4563C6.45536 23.6578 6.05149 23.9888 5.76789 24.4091C5.48429 24.8294 5.33325 25.3206 5.33325 25.8227C5.33325 26.3248 5.48429 26.816 5.76789 27.2362C6.05149 27.6565 6.45536 27.9876 6.93011 28.189L29.7834 38.2847C30.4783 38.5917 31.2331 38.7506 31.9968 38.7506C32.7605 38.7506 33.5153 38.5917 34.2101 38.2847L57.1168 28.2148Z" stroke="white" stroke-width="5.16667" stroke-linecap="round" stroke-linejoin="round"/>
<path d="M58.6667 25.8333V41.3333" stroke="white" stroke-width="5.16667" stroke-linecap="round" stroke-linejoin="round"/>
<path d="M16 32.2917V41.3334C16 43.3888 17.6857 45.36 20.6863 46.8134C23.6869 48.2668 27.7565 49.0834 32 49.0834C36.2435 49.0834 40.3131 48.2668 43.3137 46.8134C46.3143 45.36 48 43.3888 48 41.3334V32.2917" stroke="white" stroke-width="5.16667" stroke-linecap="round" stroke-linejoin="round"/>
</svg>
